<svg width="800" height="400" xmlns="http://www.w3.org/2000/svg">
<style>
  .title {
    font-family: Arial;
    font-size: 20px;
    font-weight: bold;
    text-anchor: middle;
  }
</style>

<text x="100" y="40" font-size="24" class="title">
Mobile app
</text>
<rect x="20" y="60" width="160" height="320" fill="white" stroke="black" stroke-width="3" rx="20"/>
<rect x="30" y="80" width="140" height="280" fill="white" stroke="#bbbbbb" stroke-width="2"/>
<text x="40" y="105" font-size="20" font-family="Arial">
Tickets
</text>
<line x1="50" y1="140" x2="150" y2="140" stroke="#aaaaaa" stroke-width="2"/>
<line x1="50" y1="165" x2="150" y2="165" stroke="#aaaaaa" stroke-width="2"/>
<line x1="50" y1="190" x2="150" y2="190" stroke="#aaaaaa" stroke-width="2"/>
<line x1="50" y1="215" x2="150" y2="215" stroke="#aaaaaa" stroke-width="2"/>
<rect x="250" y="94.0" width="126.0" height="252.0" fill="white" stroke="#bbbbbb" stroke-width="2"/>
<text x="260" y="119.0" font-size="20" font-family="Arial">
Tickets
</text>
<line x1="270" y1="154.0" x2="356.0" y2="154.0" stroke="#aaaaaa" stroke-width="2"/>
<line x1="270" y1="179.0" x2="356.0" y2="179.0" stroke="#aaaaaa" stroke-width="2"/>
<line x1="270" y1="204.0" x2="356.0" y2="204.0" stroke="#aaaaaa" stroke-width="2"/>
<line x1="270" y1="229.0" x2="356.0" y2="229.0" stroke="#aaaaaa" stroke-width="2"/>
<line x1="170" y1="80" x2="240" y2="84.0" stroke="black" stroke-width="2"/>
<line x1="170" y1="360" x2="240" y2="356.0" stroke="black" stroke-width="2"/>
<rect x="240" y="84.0" width="146.0" height="272.0" fill="none" stroke="black" stroke-width="4" stroke-dasharray="10 5"/>
<text x="313.0" y="34.0" font-size="24" class="title">
Webview
</text>
<line x1="313.0" y1="34.0" x2="281.5" y2="84.0" stroke="black" stroke-width="2"/>
<text x="416.0" y="64.0" font-size="24" class="title">
Browser engine
</text>
<line x1="416.0" y1="64.0" x2="376.0" y2="94.0" stroke="black" stroke-width="2"/>
<text x="630" y="100" font-size="24" class="title">
Backend Server
</text>
<rect x="550" y="160" width="160" height="50" rx="4" ry="4" fill="white" stroke="black" stroke-width="4"/>
<line x1="557" y1="185" x2="597.0" y2="185" stroke="black" stroke-width="2"/>
<circle cx="696" cy="185" r="4" fill="black" stroke="black" stroke-width="2"/>
<circle cx="682" cy="185" r="4" fill="black" stroke="black" stroke-width="2"/>
<circle cx="668" cy="185" r="4" fill="black" stroke="black" stroke-width="2"/>
<rect x="550" y="210" width="160" height="50" rx="4" ry="4" fill="white" stroke="black" stroke-width="4"/>
<line x1="557" y1="235" x2="597.0" y2="235" stroke="black" stroke-width="2"/>
<circle cx="696" cy="235" r="4" fill="black" stroke="black" stroke-width="2"/>
<circle cx="682" cy="235" r="4" fill="black" stroke="black" stroke-width="2"/>
<circle cx="668" cy="235" r="4" fill="black" stroke="black" stroke-width="2"/>
<rect x="550" y="260" width="160" height="50" rx="4" ry="4" fill="white" stroke="black" stroke-width="4"/>
<line x1="557" y1="285" x2="597.0" y2="285" stroke="black" stroke-width="2"/>
<circle cx="696" cy="285" r="4" fill="black" stroke="black" stroke-width="2"/>
<circle cx="682" cy="285" r="4" fill="black" stroke="black" stroke-width="2"/>
<circle cx="668" cy="285" r="4" fill="black" stroke="black" stroke-width="2"/>
<line x1="376.0" y1="220.0" x2="550" y2="220.0" stroke="black" stroke-width="2"/>
<line x1="550" y1="220.0" x2="530" y2="214.0" stroke="black" stroke-width="2"/>
<line x1="550" y1="220.0" x2="530" y2="226.0" stroke="black" stroke-width="2"/>
<line x1="376.0" y1="240.0" x2="550" y2="240.0" stroke="black" stroke-width="2"/>
<line x1="376.0" y1="240.0" x2="396.0" y2="234.0" stroke="black" stroke-width="2"/>
<line x1="376.0" y1="240.0" x2="396.0" y2="246.0" stroke="black" stroke-width="2"/>
<text x="463.0" y="210.0" font-size="12" class="title">
HTTP
</text>
</svg>
